<svg xmlns="http://www.w3.org/2000/svg" viewBox="0 0 512 512" width="512" height="512">
  <defs><linearGradient id="bg" x1="0%" y1="0%" x2="100%" y2="100%"><stop offset="0%" style="stop-color:#8e0000"/><stop offset="100%" style="stop-color:#c62828"/></linearGradient></defs>
  <circle cx="256" cy="256" r="256" fill="url(#bg)"/>
  <path d="M156 200 L180 340 Q183 360 200 360 L312 360 Q329 360 332 340 L356 200 Z" fill="rgba(255,255,255,0.95)"/>
  <path d="M340 240 Q390 240 390 280 Q390 320 340 320" fill="none" stroke="rgba(255,255,255,0.85)" stroke-width="18" stroke-linecap="round"/>
  <ellipse cx="256" cy="205" rx="98" ry="18" fill="#6d3a1f" opacity="0.6"/>
  <path d="M210 165 Q215 145 210 125" fill="none" stroke="rgba(255,255,255,0.7)" stroke-width="6" stroke-linecap="round"/>
  <path d="M256 155 Q261 130 256 110" fill="none" stroke="rgba(255,255,255,0.7)" stroke-width="6" stroke-linecap="round"/>
  <path d="M302 165 Q307 145 302 125" fill="none" stroke="rgba(255,255,255,0.7)" stroke-width="6" stroke-linecap="round"/>
  <ellipse cx="256" cy="368" rx="120" ry="16" fill="rgba(255,255,255,0.3)"/>
  <text x="256" y="430" text-anchor="middle" font-family="Georgia,serif" font-size="36" font-weight="bold" fill="white">Nardeen</text>
  <text x="256" y="465" text-anchor="middle" font-family="Georgia,serif" font-size="22" fill="rgba(255,255,255,0.8)">CAFFE</text>
</svg>
